<svg xmlns="http://www.w3.org/2000/svg" xmlns:xlink="http://www.w3.org/1999/xlink" zoomAndPan="magnify" preserveAspectRatio="xMidYMid meet" version="1.0" viewBox="27.39 116.78 304.27 70.5"><defs><g/><clipPath id="3546170fee"><path d="M 27.398438 116.78125 L 114.398438 116.78125 L 114.398438 187.28125 L 27.398438 187.28125 Z M 27.398438 116.78125 " clip-rule="nonzero"/></clipPath><clipPath id="a8a34adab0"><path d="M 103.890625 155.605469 C 103.890625 152.707031 106.246094 150.375 109.152344 150.375 C 112.058594 150.375 114.398438 152.71875 114.398438 155.605469 C 114.398438 158.503906 112.046875 160.839844 109.152344 160.839844 C 108.246094 160.839844 107.378906 160.609375 106.636719 160.207031 L 102.851562 165.761719 C 103.742188 166.542969 104.3125 167.691406 104.3125 168.984375 C 104.3125 171.34375 102.390625 173.261719 100.023438 173.261719 C 97.65625 173.261719 95.738281 171.34375 95.738281 168.984375 C 95.738281 167.367188 96.644531 165.949219 97.984375 165.234375 L 96.914062 162.539062 C 96.671875 162.59375 96.414062 162.621094 96.15625 162.621094 C 94.277344 162.621094 92.761719 161.09375 92.761719 159.234375 C 92.761719 157.359375 94.292969 155.835938 96.15625 155.835938 C 96.46875 155.835938 96.777344 155.875 97.0625 155.957031 L 99.265625 151.074219 C 98.726562 150.65625 98.375 150.007812 98.375 149.28125 C 98.375 148.027344 99.390625 147.015625 100.648438 147.015625 C 101.199219 147.015625 101.703125 147.203125 102.09375 147.539062 L 106.042969 144.546875 C 105.757812 144.035156 105.59375 143.425781 105.59375 142.792969 C 105.59375 141.742188 106.054688 140.785156 106.773438 140.121094 L 104.339844 136.550781 C 103.878906 136.765625 103.363281 136.886719 102.824219 136.886719 C 101.550781 136.886719 100.445312 136.210938 99.835938 135.214844 L 96.128906 136.765625 C 96.128906 136.820312 96.144531 136.871094 96.144531 136.914062 C 96.144531 137.761719 95.523438 138.464844 94.710938 138.597656 L 94.210938 142.1875 C 95.453125 142.578125 96.347656 143.738281 96.347656 145.101562 C 96.347656 146.785156 94.96875 148.160156 93.277344 148.160156 C 92.140625 148.160156 91.152344 147.539062 90.613281 146.625 L 86.21875 148.242188 C 86.21875 148.253906 86.21875 148.269531 86.21875 148.296875 C 86.21875 149.199219 85.488281 149.929688 84.582031 149.929688 C 84.488281 149.929688 84.378906 149.914062 84.285156 149.902344 L 82.054688 153.945312 C 82.324219 154.191406 82.554688 154.488281 82.703125 154.824219 L 88.867188 153.527344 C 88.964844 152.71875 89.652344 152.085938 90.492188 152.085938 C 91.398438 152.085938 92.128906 152.8125 92.128906 153.71875 C 92.128906 154.554688 91.492188 155.242188 90.679688 155.335938 L 88.867188 163.96875 C 90.789062 164.589844 92.167969 166.382812 92.167969 168.5 C 92.167969 171.128906 90.03125 173.273438 87.382812 173.273438 C 87.300781 173.273438 87.21875 173.273438 87.136719 173.273438 L 86.421875 177.699219 C 87.070312 177.996094 87.53125 178.65625 87.53125 179.425781 C 87.53125 180.289062 86.960938 181.003906 86.179688 181.246094 L 86.246094 184.589844 C 86.746094 184.777344 87.109375 185.277344 87.109375 185.84375 C 87.109375 186.585938 86.503906 187.191406 85.757812 187.191406 C 85.015625 187.191406 84.40625 186.585938 84.40625 185.84375 C 84.40625 185.710938 84.433594 185.574219 84.472656 185.4375 L 82.109375 183.46875 C 81.808594 183.671875 81.445312 183.792969 81.039062 183.792969 C 80 183.792969 79.160156 182.957031 79.160156 181.917969 C 79.160156 181.175781 79.59375 180.542969 80.214844 180.234375 L 79.808594 177.996094 C 79.78125 177.996094 79.742188 177.996094 79.714844 177.996094 C 77.820312 177.996094 76.28125 176.457031 76.28125 174.570312 C 76.28125 172.679688 77.820312 171.144531 79.714844 171.144531 C 80.621094 171.144531 81.433594 171.492188 82.039062 172.058594 L 83.351562 171.023438 C 82.878906 170.28125 82.609375 169.417969 82.609375 168.472656 C 82.609375 167.570312 82.863281 166.71875 83.3125 165.992188 L 79.957031 163.429688 C 79.699219 163.605469 79.390625 163.710938 79.050781 163.710938 C 78.6875 163.710938 78.347656 163.589844 78.078125 163.386719 L 75.957031 164.859375 C 76.335938 165.546875 76.535156 166.328125 76.535156 167.164062 C 76.535156 169.835938 74.375 171.992188 71.695312 171.992188 C 69.425781 171.992188 67.53125 170.441406 67.003906 168.335938 L 63.378906 168.835938 C 63.339844 170.550781 61.933594 171.925781 60.203125 171.925781 C 58.445312 171.925781 57.023438 170.507812 57.023438 168.757812 C 57.023438 167.003906 58.445312 165.585938 60.203125 165.585938 C 60.527344 165.585938 60.839844 165.640625 61.121094 165.722656 L 64.988281 157.914062 C 64.003906 157.25 63.324219 156.171875 63.203125 154.933594 L 60.011719 154.824219 C 59.785156 155.417969 59.214844 155.835938 58.539062 155.835938 C 58.363281 155.835938 58.203125 155.808594 58.039062 155.753906 L 55.484375 159.058594 C 56.28125 159.839844 56.769531 160.921875 56.769531 162.121094 C 56.769531 164.492188 54.835938 166.421875 52.453125 166.421875 C 50.453125 166.421875 48.761719 165.046875 48.277344 163.199219 L 45.316406 163.589844 C 45.261719 165.277344 43.867188 166.636719 42.164062 166.636719 C 40.417969 166.636719 39.011719 165.234375 39.011719 163.496094 C 39.011719 161.851562 40.285156 160.5 41.90625 160.367188 L 42.191406 156.914062 C 41.625 156.671875 41.230469 156.105469 41.230469 155.445312 C 41.230469 154.566406 41.949219 153.839844 42.839844 153.839844 C 43.042969 153.839844 43.21875 153.878906 43.394531 153.933594 L 49.4375 146.515625 C 49.289062 146.273438 49.195312 145.976562 49.195312 145.667969 C 49.195312 145.234375 49.371094 144.84375 49.640625 144.558594 L 48.707031 142.753906 C 48.234375 142.929688 47.734375 143.023438 47.207031 143.023438 C 46.449219 143.023438 45.734375 142.820312 45.125 142.484375 L 41.488281 147.515625 C 41.867188 147.933594 42.097656 148.5 42.097656 149.117188 C 42.097656 150.441406 41.015625 151.519531 39.691406 151.519531 C 39.417969 151.519531 39.148438 151.480469 38.90625 151.382812 L 35.105469 157.5625 C 35.972656 158.261719 36.511719 159.328125 36.511719 160.527344 C 36.511719 162.644531 34.792969 164.359375 32.671875 164.359375 C 30.550781 164.359375 28.832031 162.644531 28.832031 160.527344 C 28.832031 158.800781 29.980469 157.347656 31.550781 156.859375 L 31.253906 155.039062 C 31.226562 155.039062 31.210938 155.039062 31.183594 155.039062 C 29.210938 155.039062 27.613281 153.449219 27.613281 151.480469 C 27.613281 149.523438 29.195312 147.933594 31.15625 147.917969 L 31.375 146.339844 C 29.089844 145.789062 27.386719 143.722656 27.386719 141.269531 C 27.386719 138.398438 29.722656 136.0625 32.605469 136.0625 C 34.996094 136.0625 37.027344 137.667969 37.632812 139.867188 L 42.894531 138.9375 C 42.894531 138.855469 42.894531 138.789062 42.894531 138.707031 C 42.894531 137.980469 43.082031 137.289062 43.394531 136.683594 L 39.515625 133.972656 C 39.082031 134.378906 38.5 134.621094 37.863281 134.621094 C 36.527344 134.621094 35.429688 133.527344 35.429688 132.191406 C 35.429688 130.855469 36.527344 129.765625 37.863281 129.765625 C 39.203125 129.765625 40.296875 130.855469 40.296875 132.191406 C 40.296875 132.53125 40.230469 132.839844 40.109375 133.125 L 43.988281 135.835938 C 44.542969 135.214844 45.289062 134.753906 46.113281 134.539062 L 46.097656 130.613281 C 44.640625 130.371094 43.53125 129.117188 43.53125 127.59375 C 43.53125 125.90625 44.910156 124.53125 46.597656 124.53125 C 47.601562 124.53125 48.480469 125.003906 49.035156 125.730469 L 53.941406 123.167969 C 53.820312 122.804688 53.753906 122.429688 53.753906 122.023438 C 53.753906 120.09375 55.320312 118.515625 57.269531 118.515625 C 59.203125 118.515625 60.785156 120.082031 60.785156 122.023438 C 60.785156 123.304688 60.09375 124.4375 59.054688 125.042969 L 60.675781 129.035156 C 60.933594 128.984375 61.191406 128.941406 61.472656 128.941406 C 62.109375 128.941406 62.71875 129.117188 63.230469 129.429688 L 66.910156 124.976562 C 66.070312 124.113281 65.542969 122.941406 65.542969 121.644531 C 65.542969 119.015625 67.679688 116.871094 70.332031 116.871094 C 72.96875 116.871094 75.117188 119.003906 75.117188 121.644531 C 75.117188 122.820312 74.683594 123.898438 73.980469 124.722656 L 77.632812 128.550781 C 77.847656 128.441406 78.09375 128.390625 78.347656 128.390625 C 78.417969 128.390625 78.484375 128.390625 78.539062 128.402344 L 80.484375 124.207031 C 79.6875 123.65625 79.160156 122.738281 79.160156 121.6875 C 79.160156 120 80.539062 118.625 82.230469 118.625 C 83.917969 118.625 85.300781 120 85.300781 121.6875 C 85.300781 122.0625 85.230469 122.429688 85.109375 122.75 L 88.207031 124.546875 C 88.976562 123.535156 90.207031 122.875 91.574219 122.875 C 93.914062 122.875 95.804688 124.761719 95.804688 127.09375 C 95.804688 127.660156 95.699219 128.199219 95.496094 128.6875 L 100.066406 131.234375 C 100.699219 130.414062 101.703125 129.871094 102.835938 129.871094 C 104.769531 129.871094 106.339844 131.4375 106.339844 133.367188 C 106.339844 134.378906 105.90625 135.292969 105.21875 135.929688 L 107.652344 139.503906 C 108.125 139.273438 108.664062 139.136719 109.234375 139.136719 C 111.234375 139.136719 112.855469 140.757812 112.855469 142.753906 C 112.855469 144.75 111.234375 146.367188 109.234375 146.367188 C 108.246094 146.367188 107.339844 145.976562 106.691406 145.328125 L 102.742188 148.324219 C 102.863281 148.605469 102.933594 148.917969 102.933594 149.238281 C 102.933594 150.496094 101.917969 151.507812 100.660156 151.507812 C 100.511719 151.507812 100.363281 151.492188 100.226562 151.464844 L 98.023438 156.347656 C 98.957031 156.953125 99.578125 158.007812 99.578125 159.195312 C 99.578125 160.433594 98.902344 161.527344 97.902344 162.121094 L 98.96875 164.816406 C 99.320312 164.722656 99.671875 164.683594 100.050781 164.683594 C 100.753906 164.683594 101.429688 164.859375 102.011719 165.15625 L 105.796875 159.597656 C 104.648438 158.640625 103.917969 157.199219 103.917969 155.578125 Z M 47.152344 134.429688 L 47.140625 130.628906 C 48.585938 130.386719 49.683594 129.117188 49.683594 127.605469 C 49.683594 127.285156 49.628906 126.960938 49.535156 126.664062 L 54.441406 124.101562 C 55.078125 124.976562 56.117188 125.542969 57.28125 125.542969 C 57.566406 125.542969 57.835938 125.515625 58.105469 125.449219 L 59.730469 129.441406 C 58.730469 130.035156 58.050781 131.128906 58.050781 132.382812 C 58.050781 133.890625 59.039062 135.171875 60.40625 135.632812 L 59.675781 139.949219 C 59.582031 139.949219 59.484375 139.933594 59.378906 139.933594 C 56.699219 139.933594 54.535156 142.09375 54.535156 144.761719 C 54.535156 147.433594 56.699219 149.589844 59.378906 149.589844 C 61.917969 149.589844 64.003906 147.636719 64.203125 145.152344 L 67.003906 145.074219 C 67.234375 145.679688 67.816406 146.109375 68.503906 146.109375 C 68.992188 146.109375 69.425781 145.894531 69.722656 145.542969 L 73.386719 147 C 73.347656 147.21875 73.320312 147.433594 73.320312 147.648438 C 73.320312 149.347656 74.710938 150.738281 76.414062 150.738281 C 78.117188 150.738281 79.511719 149.347656 79.511719 147.648438 C 79.511719 146.90625 79.242188 146.21875 78.808594 145.679688 L 82.6875 141.203125 C 83.367188 141.648438 84.175781 141.917969 85.042969 141.917969 C 87.382812 141.917969 89.273438 140.027344 89.273438 137.695312 C 89.273438 135.363281 87.382812 133.472656 85.042969 133.472656 C 84.164062 133.472656 83.339844 133.742188 82.664062 134.203125 L 79.769531 130.898438 C 79.917969 130.65625 80 130.359375 80 130.046875 C 80 129.574219 79.796875 129.144531 79.472656 128.835938 L 81.40625 124.640625 C 81.660156 124.707031 81.933594 124.746094 82.203125 124.746094 C 83.148438 124.746094 84 124.316406 84.554688 123.640625 L 87.652344 125.4375 C 87.4375 125.949219 87.3125 126.5 87.3125 127.09375 C 87.3125 129.429688 89.207031 131.316406 91.546875 131.316406 C 91.777344 131.316406 92.007812 131.300781 92.222656 131.261719 L 93.4375 135.457031 C 92.980469 135.765625 92.683594 136.277344 92.683594 136.871094 C 92.683594 137.558594 93.085938 138.140625 93.65625 138.421875 L 93.15625 142.011719 C 91.503906 142.066406 90.179688 143.414062 90.179688 145.074219 C 90.179688 145.261719 90.195312 145.449219 90.234375 145.640625 L 85.839844 147.257812 C 85.542969 146.878906 85.082031 146.652344 84.570312 146.652344 C 83.664062 146.652344 82.933594 147.378906 82.933594 148.28125 C 82.933594 148.714844 83.09375 149.09375 83.367188 149.386719 L 81.132812 153.433594 C 80.90625 153.367188 80.660156 153.328125 80.417969 153.328125 C 79.039062 153.328125 77.929688 154.433594 77.929688 155.808594 C 77.929688 157.183594 79.039062 158.289062 80.417969 158.289062 C 81.796875 158.289062 82.90625 157.183594 82.90625 155.808594 L 89.070312 154.5 C 89.21875 154.742188 89.410156 154.945312 89.652344 155.082031 L 87.839844 163.710938 C 87.691406 163.699219 87.53125 163.683594 87.367188 163.683594 C 86.015625 163.683594 84.785156 164.25 83.90625 165.15625 L 80.554688 162.59375 C 80.605469 162.429688 80.648438 162.242188 80.648438 162.066406 C 80.648438 161.164062 79.917969 160.433594 79.011719 160.433594 C 78.105469 160.433594 77.375 161.164062 77.375 162.066406 C 77.375 162.226562 77.402344 162.375 77.441406 162.523438 L 75.320312 163.996094 C 74.425781 162.96875 73.117188 162.324219 71.65625 162.324219 C 68.976562 162.324219 66.816406 164.480469 66.816406 167.152344 C 66.816406 167.203125 66.816406 167.257812 66.816406 167.300781 L 63.191406 167.796875 C 62.988281 167.136719 62.554688 166.558594 62 166.167969 L 65.867188 158.359375 C 66.273438 158.492188 66.71875 158.574219 67.179688 158.574219 C 69.410156 158.574219 71.222656 156.765625 71.222656 154.539062 C 71.222656 152.316406 69.410156 150.519531 67.179688 150.519531 C 65.179688 150.519531 63.515625 151.976562 63.191406 153.894531 L 60 153.785156 C 59.796875 153.136719 59.203125 152.679688 58.5 152.679688 C 57.632812 152.679688 56.917969 153.378906 56.917969 154.257812 C 56.917969 154.582031 57.011719 154.863281 57.171875 155.121094 L 54.617188 158.425781 C 53.96875 158.035156 53.210938 157.816406 52.414062 157.816406 C 50.035156 157.816406 48.101562 159.746094 48.101562 162.121094 C 48.101562 162.132812 48.101562 162.160156 48.101562 162.175781 L 45.140625 162.566406 C 44.816406 161.527344 43.960938 160.703125 42.894531 160.433594 L 43.179688 156.980469 C 43.882812 156.804688 44.394531 156.171875 44.394531 155.429688 C 44.394531 155.121094 44.300781 154.824219 44.152344 154.582031 L 50.195312 147.164062 C 50.371094 147.230469 50.5625 147.257812 50.75 147.257812 C 51.644531 147.257812 52.359375 146.542969 52.359375 145.652344 C 52.359375 144.777344 51.644531 144.046875 50.75 144.046875 C 50.667969 144.046875 50.589844 144.046875 50.519531 144.0625 L 49.585938 142.253906 C 50.722656 141.484375 51.480469 140.175781 51.480469 138.695312 C 51.480469 136.320312 49.546875 134.390625 47.167969 134.390625 C 47.140625 134.390625 47.125 134.390625 47.113281 134.390625 Z M 60.6875 140.121094 L 61.417969 135.808594 C 61.433594 135.808594 61.460938 135.808594 61.472656 135.808594 C 62.71875 135.808594 63.800781 135.144531 64.40625 134.160156 L 69.410156 136.226562 C 69.34375 136.507812 69.304688 136.792969 69.304688 137.101562 C 69.304688 139.070312 70.898438 140.664062 72.871094 140.664062 C 74.847656 140.664062 76.441406 139.070312 76.441406 137.101562 C 76.441406 136.144531 76.0625 135.28125 75.457031 134.632812 L 77.792969 131.625 C 77.96875 131.695312 78.160156 131.71875 78.347656 131.71875 C 78.578125 131.71875 78.796875 131.679688 78.996094 131.585938 L 81.890625 134.890625 C 81.214844 135.632812 80.808594 136.628906 80.808594 137.707031 C 80.808594 138.800781 81.230469 139.785156 81.90625 140.542969 L 78.023438 145.019531 C 77.550781 144.734375 77.011719 144.574219 76.414062 144.574219 C 75.292969 144.574219 74.320312 145.167969 73.765625 146.058594 L 70.101562 144.601562 C 70.101562 144.574219 70.101562 144.546875 70.101562 144.519531 C 70.101562 143.628906 69.382812 142.914062 68.492188 142.914062 C 67.773438 142.914062 67.167969 143.386719 66.964844 144.046875 L 64.164062 144.128906 C 63.90625 142.199219 62.515625 140.648438 60.675781 140.121094 Z M 73.222656 125.449219 L 76.875 129.28125 C 76.753906 129.507812 76.671875 129.777344 76.671875 130.0625 C 76.671875 130.398438 76.78125 130.722656 76.957031 130.992188 L 74.617188 134 C 74.101562 133.703125 73.496094 133.542969 72.859375 133.542969 C 71.5625 133.542969 70.425781 134.242188 69.804688 135.269531 L 64.800781 133.191406 C 64.867188 132.933594 64.894531 132.652344 64.894531 132.367188 C 64.894531 131.492188 64.554688 130.695312 64.015625 130.089844 L 67.695312 125.636719 C 68.449219 126.136719 69.34375 126.421875 70.316406 126.421875 C 71.414062 126.421875 72.414062 126.054688 73.222656 125.4375 Z M 94.441406 135.199219 L 93.222656 130.992188 C 93.925781 130.695312 94.519531 130.210938 94.96875 129.601562 L 99.539062 132.152344 C 99.390625 132.53125 99.308594 132.949219 99.308594 133.378906 C 99.308594 133.675781 99.347656 133.960938 99.417969 134.242188 L 95.710938 135.792969 C 95.398438 135.429688 94.953125 135.199219 94.441406 135.1875 Z M 86.136719 173.085938 L 85.421875 177.507812 C 84.472656 177.617188 83.730469 178.425781 83.730469 179.398438 C 83.730469 180.289062 84.339844 181.027344 85.164062 181.246094 L 85.230469 184.589844 C 85.203125 184.601562 85.164062 184.617188 85.136719 184.628906 L 82.769531 182.660156 C 82.878906 182.433594 82.933594 182.175781 82.933594 181.90625 C 82.933594 180.933594 82.1875 180.140625 81.242188 180.042969 L 80.835938 177.804688 C 82.1875 177.347656 83.164062 176.066406 83.164062 174.570312 C 83.164062 173.949219 83 173.367188 82.703125 172.871094 L 84.015625 171.832031 C 84.597656 172.410156 85.328125 172.855469 86.152344 173.070312 Z M 44.289062 141.890625 L 40.648438 146.921875 C 40.351562 146.800781 40.027344 146.71875 39.691406 146.71875 C 38.363281 146.71875 37.28125 147.796875 37.28125 149.117188 C 37.28125 149.792969 37.566406 150.414062 38.027344 150.84375 L 34.226562 157.023438 C 33.753906 156.804688 33.226562 156.699219 32.671875 156.699219 C 32.632812 156.699219 32.605469 156.699219 32.5625 156.699219 L 32.265625 154.878906 C 33.714844 154.417969 34.753906 153.070312 34.753906 151.492188 C 34.753906 149.875 33.671875 148.511719 32.183594 148.082031 L 32.402344 146.503906 C 32.46875 146.503906 32.535156 146.503906 32.617188 146.503906 C 35.496094 146.503906 37.835938 144.167969 37.835938 141.296875 C 37.835938 141.160156 37.835938 141.039062 37.824219 140.90625 L 43.082031 139.988281 C 43.3125 140.730469 43.734375 141.390625 44.289062 141.902344 Z M 48.234375 152.382812 C 48.234375 150.695312 49.613281 149.320312 51.304688 149.320312 C 52.996094 149.320312 54.375 150.695312 54.375 152.382812 C 54.375 154.070312 52.996094 155.445312 51.304688 155.445312 C 49.613281 155.445312 48.234375 154.070312 48.234375 152.382812 Z M 51.519531 131.84375 C 51.519531 130.953125 52.238281 130.238281 53.128906 130.238281 C 54.023438 130.238281 54.738281 130.953125 54.738281 131.84375 C 54.738281 132.71875 54.023438 133.445312 53.128906 133.445312 C 52.25 133.445312 51.519531 132.730469 51.519531 131.84375 Z M 51.519531 131.84375 " clip-rule="evenodd"/></clipPath><linearGradient x1="39.985145" gradientTransform="matrix(1.352192, 0, 0, 1.348703, 27.398335, 116.884857)" y1="-0.154488" x2="39.673595" gradientUnits="userSpaceOnUse" y2="52.36533" id="3b387bc030"><stop stop-opacity="1" stop-color="rgb(28.199768%, 79.199219%, 48.999023%)" offset="0"/><stop stop-opacity="1" stop-color="rgb(28.199768%, 79.199219%, 48.999023%)" offset="0.00726688"/><stop stop-opacity="1" stop-color="rgb(28.199768%, 79.199219%, 48.999023%)" offset="0.0625"/><stop stop-opacity="1" stop-color="rgb(28.199768%, 79.199219%, 48.999023%)" offset="0.09375"/><stop stop-opacity="1" stop-color="rgb(28.199768%, 79.199219%, 48.999023%)" offset="0.109375"/><stop stop-opacity="1" stop-color="rgb(28.125%, 79.171753%, 49.116516%)" offset="0.117188"/><stop stop-opacity="1" stop-color="rgb(27.919006%, 79.093933%, 49.443054%)" offset="0.121094"/><stop stop-opacity="1" stop-color="rgb(27.787781%, 79.043579%, 49.6521%)" offset="0.125"/><stop stop-opacity="1" stop-color="rgb(27.655029%, 78.993225%, 49.861145%)" offset="0.128906"/><stop stop-opacity="1" stop-color="rgb(27.523804%, 78.944397%, 50.07019%)" offset="0.132812"/><stop stop-opacity="1" stop-color="rgb(27.391052%, 78.894043%, 50.279236%)" offset="0.136719"/><stop stop-opacity="1" stop-color="rgb(27.259827%, 78.845215%, 50.489807%)" offset="0.140625"/><stop stop-opacity="1" stop-color="rgb(27.127075%, 78.794861%, 50.698853%)" offset="0.144531"/><stop stop-opacity="1" stop-color="rgb(26.99585%, 78.746033%, 50.907898%)" offset="0.148438"/><stop stop-opacity="1" stop-color="rgb(26.863098%, 78.695679%, 51.116943%)" offset="0.152344"/><stop stop-opacity="1" stop-color="rgb(26.731873%, 78.646851%, 51.325989%)" offset="0.15625"/><stop stop-opacity="1" stop-color="rgb(26.599121%, 78.596497%, 51.535034%)" offset="0.160156"/><stop stop-opacity="1" stop-color="rgb(26.467896%, 78.547668%, 51.74408%)" offset="0.164063"/><stop stop-opacity="1" stop-color="rgb(26.335144%, 78.497314%, 51.953125%)" offset="0.167969"/><stop stop-opacity="1" stop-color="rgb(26.203918%, 78.448486%, 52.163696%)" offset="0.171875"/><stop stop-opacity="1" stop-color="rgb(26.071167%, 78.398132%, 52.372742%)" offset="0.175781"/><stop stop-opacity="1" stop-color="rgb(25.939941%, 78.349304%, 52.581787%)" offset="0.179688"/><stop stop-opacity="1" stop-color="rgb(25.80719%, 78.29895%, 52.790833%)" offset="0.183594"/><stop stop-opacity="1" stop-color="rgb(25.675964%, 78.250122%, 52.999878%)" offset="0.1875"/><stop stop-opacity="1" stop-color="rgb(25.543213%, 78.199768%, 53.208923%)" offset="0.191406"/><stop stop-opacity="1" stop-color="rgb(25.410461%, 78.15094%, 53.417969%)" offset="0.195313"/><stop stop-opacity="1" stop-color="rgb(25.27771%, 78.100586%, 53.627014%)" offset="0.199219"/><stop stop-opacity="1" stop-color="rgb(25.146484%, 78.051758%, 53.837585%)" offset="0.203125"/><stop stop-opacity="1" stop-color="rgb(25.013733%, 78.001404%, 54.046631%)" offset="0.207031"/><stop stop-opacity="1" stop-color="rgb(24.882507%, 77.952576%, 54.255676%)" offset="0.210938"/><stop stop-opacity="1" stop-color="rgb(24.749756%, 77.902222%, 54.464722%)" offset="0.214844"/><stop stop-opacity="1" stop-color="rgb(24.61853%, 77.853394%, 54.673767%)" offset="0.21875"/><stop stop-opacity="1" stop-color="rgb(24.485779%, 77.80304%, 54.882812%)" offset="0.222656"/><stop stop-opacity="1" stop-color="rgb(24.354553%, 77.754211%, 55.091858%)" offset="0.226563"/><stop stop-opacity="1" stop-color="rgb(24.221802%, 77.703857%, 55.300903%)" offset="0.230469"/><stop stop-opacity="1" stop-color="rgb(24.090576%, 77.655029%, 55.511475%)" offset="0.234375"/><stop stop-opacity="1" stop-color="rgb(23.957825%, 77.604675%, 55.72052%)" offset="0.238281"/><stop stop-opacity="1" stop-color="rgb(23.826599%, 77.555847%, 55.929565%)" offset="0.242188"/><stop stop-opacity="1" stop-color="rgb(23.693848%, 77.505493%, 56.138611%)" offset="0.246094"/><stop stop-opacity="1" stop-color="rgb(23.562622%, 77.456665%, 56.347656%)" offset="0.25"/><stop stop-opacity="1" stop-color="rgb(23.429871%, 77.406311%, 56.556702%)" offset="0.253906"/><stop stop-opacity="1" stop-color="rgb(23.298645%, 77.357483%, 56.765747%)" offset="0.257812"/><stop stop-opacity="1" stop-color="rgb(23.165894%, 77.307129%, 56.974792%)" offset="0.261719"/><stop stop-opacity="1" stop-color="rgb(23.034668%, 77.258301%, 57.185364%)" offset="0.265625"/><stop stop-opacity="1" stop-color="rgb(22.901917%, 77.207947%, 57.394409%)" offset="0.269531"/><stop stop-opacity="1" stop-color="rgb(22.770691%, 77.159119%, 57.603455%)" offset="0.273438"/><stop stop-opacity="1" stop-color="rgb(22.637939%, 77.108765%, 57.8125%)" offset="0.277344"/><stop stop-opacity="1" stop-color="rgb(22.506714%, 77.059937%, 58.021545%)" offset="0.28125"/><stop stop-opacity="1" stop-color="rgb(22.373962%, 77.009583%, 58.230591%)" offset="0.285156"/><stop stop-opacity="1" stop-color="rgb(22.242737%, 76.960754%, 58.439636%)" offset="0.289063"/><stop stop-opacity="1" stop-color="rgb(22.109985%, 76.9104%, 58.648682%)" offset="0.292969"/><stop stop-opacity="1" stop-color="rgb(21.97876%, 76.861572%, 58.857727%)" offset="0.296875"/><stop stop-opacity="1" stop-color="rgb(21.846008%, 76.811218%, 59.066772%)" offset="0.300781"/><stop stop-opacity="1" stop-color="rgb(21.714783%, 76.76239%, 59.277344%)" offset="0.304688"/><stop stop-opacity="1" stop-color="rgb(21.582031%, 76.712036%, 59.486389%)" offset="0.308594"/><stop stop-opacity="1" stop-color="rgb(21.450806%, 76.663208%, 59.695435%)" offset="0.3125"/><stop stop-opacity="1" stop-color="rgb(21.318054%, 76.612854%, 59.90448%)" offset="0.316406"/><stop stop-opacity="1" stop-color="rgb(21.186829%, 76.564026%, 60.113525%)" offset="0.320312"/><stop stop-opacity="1" stop-color="rgb(21.054077%, 76.513672%, 60.322571%)" offset="0.324219"/><stop stop-opacity="1" stop-color="rgb(20.922852%, 76.464844%, 60.531616%)" offset="0.328125"/><stop stop-opacity="1" stop-color="rgb(20.7901%, 76.41449%, 60.740662%)" offset="0.332031"/><stop stop-opacity="1" stop-color="rgb(20.658875%, 76.365662%, 60.951233%)" offset="0.335938"/><stop stop-opacity="1" stop-color="rgb(20.526123%, 76.315308%, 61.160278%)" offset="0.339844"/><stop stop-opacity="1" stop-color="rgb(20.394897%, 76.266479%, 61.369324%)" offset="0.34375"/><stop stop-opacity="1" stop-color="rgb(20.262146%, 76.216125%, 61.578369%)" offset="0.347656"/><stop stop-opacity="1" stop-color="rgb(20.13092%, 76.167297%, 61.787415%)" offset="0.351563"/><stop stop-opacity="1" stop-color="rgb(19.998169%, 76.116943%, 61.99646%)" offset="0.355469"/><stop stop-opacity="1" stop-color="rgb(19.866943%, 76.068115%, 62.205505%)" offset="0.359375"/><stop stop-opacity="1" stop-color="rgb(19.734192%, 76.017761%, 62.414551%)" offset="0.363281"/><stop stop-opacity="1" stop-color="rgb(19.602966%, 75.968933%, 62.625122%)" offset="0.367188"/><stop stop-opacity="1" stop-color="rgb(19.470215%, 75.918579%, 62.834167%)" offset="0.371094"/><stop stop-opacity="1" stop-color="rgb(19.338989%, 75.868225%, 63.043213%)" offset="0.375"/><stop stop-opacity="1" stop-color="rgb(19.206238%, 75.817871%, 63.252258%)" offset="0.378906"/><stop stop-opacity="1" stop-color="rgb(19.075012%, 75.769043%, 63.461304%)" offset="0.382812"/><stop stop-opacity="1" stop-color="rgb(18.942261%, 75.718689%, 63.670349%)" offset="0.386719"/><stop stop-opacity="1" stop-color="rgb(18.811035%, 75.669861%, 63.879395%)" offset="0.390625"/><stop stop-opacity="1" stop-color="rgb(18.678284%, 75.619507%, 64.08844%)" offset="0.394531"/><stop stop-opacity="1" stop-color="rgb(18.547058%, 75.570679%, 64.299011%)" offset="0.398438"/><stop stop-opacity="1" stop-color="rgb(18.414307%, 75.520325%, 64.508057%)" offset="0.402344"/><stop stop-opacity="1" stop-color="rgb(18.283081%, 75.471497%, 64.717102%)" offset="0.40625"/><stop stop-opacity="1" stop-color="rgb(18.15033%, 75.421143%, 64.926147%)" offset="0.410156"/><stop stop-opacity="1" stop-color="rgb(18.019104%, 75.372314%, 65.135193%)" offset="0.414063"/><stop stop-opacity="1" stop-color="rgb(17.886353%, 75.32196%, 65.344238%)" offset="0.417969"/><stop stop-opacity="1" stop-color="rgb(17.755127%, 75.273132%, 65.553284%)" offset="0.421875"/><stop stop-opacity="1" stop-color="rgb(17.622375%, 75.222778%, 65.762329%)" offset="0.425781"/><stop stop-opacity="1" stop-color="rgb(17.49115%, 75.17395%, 65.9729%)" offset="0.429688"/><stop stop-opacity="1" stop-color="rgb(17.358398%, 75.123596%, 66.181946%)" offset="0.433594"/><stop stop-opacity="1" stop-color="rgb(17.227173%, 75.074768%, 66.390991%)" offset="0.4375"/><stop stop-opacity="1" stop-color="rgb(17.094421%, 75.024414%, 66.600037%)" offset="0.441406"/><stop stop-opacity="1" stop-color="rgb(16.963196%, 74.975586%, 66.809082%)" offset="0.445312"/><stop stop-opacity="1" stop-color="rgb(16.830444%, 74.925232%, 67.018127%)" offset="0.449219"/><stop stop-opacity="1" stop-color="rgb(16.699219%, 74.876404%, 67.227173%)" offset="0.453125"/><stop stop-opacity="1" stop-color="rgb(16.566467%, 74.82605%, 67.436218%)" offset="0.457031"/><stop stop-opacity="1" stop-color="rgb(16.435242%, 74.777222%, 67.64679%)" offset="0.460938"/><stop stop-opacity="1" stop-color="rgb(16.30249%, 74.726868%, 67.855835%)" offset="0.464844"/><stop stop-opacity="1" stop-color="rgb(16.171265%, 74.67804%, 68.06488%)" offset="0.46875"/><stop stop-opacity="1" stop-color="rgb(16.038513%, 74.627686%, 68.273926%)" offset="0.472656"/><stop stop-opacity="1" stop-color="rgb(15.907288%, 74.578857%, 68.482971%)" offset="0.476562"/><stop stop-opacity="1" stop-color="rgb(15.774536%, 74.528503%, 68.692017%)" offset="0.480469"/><stop stop-opacity="1" stop-color="rgb(15.643311%, 74.479675%, 68.901062%)" offset="0.484375"/><stop stop-opacity="1" stop-color="rgb(15.510559%, 74.429321%, 69.110107%)" offset="0.488281"/><stop stop-opacity="1" stop-color="rgb(15.379333%, 74.380493%, 69.319153%)" offset="0.492188"/><stop stop-opacity="1" stop-color="rgb(15.246582%, 74.330139%, 69.528198%)" offset="0.496094"/><stop stop-opacity="1" stop-color="rgb(15.115356%, 74.281311%, 69.73877%)" offset="0.5"/><stop stop-opacity="1" stop-color="rgb(14.982605%, 74.230957%, 69.947815%)" offset="0.503906"/><stop stop-opacity="1" stop-color="rgb(14.851379%, 74.182129%, 70.15686%)" offset="0.507812"/><stop stop-opacity="1" stop-color="rgb(14.718628%, 74.131775%, 70.365906%)" offset="0.511719"/><stop stop-opacity="1" stop-color="rgb(14.587402%, 74.082947%, 70.574951%)" offset="0.515625"/><stop stop-opacity="1" stop-color="rgb(14.454651%, 74.032593%, 70.783997%)" offset="0.519531"/><stop stop-opacity="1" stop-color="rgb(14.323425%, 73.983765%, 70.993042%)" offset="0.523438"/><stop stop-opacity="1" stop-color="rgb(14.190674%, 73.933411%, 71.202087%)" offset="0.527344"/><stop stop-opacity="1" stop-color="rgb(14.059448%, 73.884583%, 71.412659%)" offset="0.53125"/><stop stop-opacity="1" stop-color="rgb(13.926697%, 73.834229%, 71.621704%)" offset="0.535156"/><stop stop-opacity="1" stop-color="rgb(13.795471%, 73.7854%, 71.83075%)" offset="0.539063"/><stop stop-opacity="1" stop-color="rgb(13.66272%, 73.735046%, 72.039795%)" offset="0.542969"/><stop stop-opacity="1" stop-color="rgb(13.531494%, 73.686218%, 72.24884%)" offset="0.546875"/><stop stop-opacity="1" stop-color="rgb(13.398743%, 73.635864%, 72.457886%)" offset="0.550781"/><stop stop-opacity="1" stop-color="rgb(13.267517%, 73.587036%, 72.666931%)" offset="0.554688"/><stop stop-opacity="1" stop-color="rgb(13.134766%, 73.536682%, 72.875977%)" offset="0.558594"/><stop stop-opacity="1" stop-color="rgb(13.00354%, 73.487854%, 73.086548%)" offset="0.5625"/><stop stop-opacity="1" stop-color="rgb(12.870789%, 73.4375%, 73.295593%)" offset="0.566406"/><stop stop-opacity="1" stop-color="rgb(12.739563%, 73.388672%, 73.504639%)" offset="0.570312"/><stop stop-opacity="1" stop-color="rgb(12.606812%, 73.338318%, 73.713684%)" offset="0.574219"/><stop stop-opacity="1" stop-color="rgb(12.475586%, 73.28949%, 73.922729%)" offset="0.578125"/><stop stop-opacity="1" stop-color="rgb(12.342834%, 73.239136%, 74.131775%)" offset="0.582031"/><stop stop-opacity="1" stop-color="rgb(12.211609%, 73.190308%, 74.34082%)" offset="0.585938"/><stop stop-opacity="1" stop-color="rgb(12.078857%, 73.139954%, 74.549866%)" offset="0.589844"/><stop stop-opacity="1" stop-color="rgb(11.947632%, 73.091125%, 74.760437%)" offset="0.59375"/><stop stop-opacity="1" stop-color="rgb(11.81488%, 73.040771%, 74.969482%)" offset="0.597656"/><stop stop-opacity="1" stop-color="rgb(11.683655%, 72.991943%, 75.178528%)" offset="0.601562"/><stop stop-opacity="1" stop-color="rgb(11.550903%, 72.941589%, 75.387573%)" offset="0.605469"/><stop stop-opacity="1" stop-color="rgb(11.419678%, 72.892761%, 75.596619%)" offset="0.609375"/><stop stop-opacity="1" stop-color="rgb(11.286926%, 72.842407%, 75.805664%)" offset="0.613281"/><stop stop-opacity="1" stop-color="rgb(11.155701%, 72.792053%, 76.014709%)" offset="0.617188"/><stop stop-opacity="1" stop-color="rgb(11.022949%, 72.741699%, 76.223755%)" offset="0.621094"/><stop stop-opacity="1" stop-color="rgb(10.891724%, 72.692871%, 76.434326%)" offset="0.625"/><stop stop-opacity="1" stop-color="rgb(10.758972%, 72.642517%, 76.643372%)" offset="0.628906"/><stop stop-opacity="1" stop-color="rgb(10.627747%, 72.593689%, 76.852417%)" offset="0.632812"/><stop stop-opacity="1" stop-color="rgb(10.494995%, 72.543335%, 77.061462%)" offset="0.636719"/><stop stop-opacity="1" stop-color="rgb(10.36377%, 72.494507%, 77.270508%)" offset="0.640625"/><stop stop-opacity="1" stop-color="rgb(10.231018%, 72.444153%, 77.479553%)" offset="0.644531"/><stop stop-opacity="1" stop-color="rgb(10.099792%, 72.395325%, 77.688599%)" offset="0.648438"/><stop stop-opacity="1" stop-color="rgb(9.967041%, 72.344971%, 77.897644%)" offset="0.652344"/><stop stop-opacity="1" stop-color="rgb(9.835815%, 72.296143%, 78.106689%)" offset="0.65625"/><stop stop-opacity="1" stop-color="rgb(9.703064%, 72.245789%, 78.315735%)" offset="0.660156"/><stop stop-opacity="1" stop-color="rgb(9.571838%, 72.19696%, 78.526306%)" offset="0.664062"/><stop stop-opacity="1" stop-color="rgb(9.439087%, 72.146606%, 78.735352%)" offset="0.667969"/><stop stop-opacity="1" stop-color="rgb(9.307861%, 72.097778%, 78.944397%)" offset="0.671875"/><stop stop-opacity="1" stop-color="rgb(9.17511%, 72.047424%, 79.153442%)" offset="0.675781"/><stop stop-opacity="1" stop-color="rgb(9.043884%, 71.998596%, 79.362488%)" offset="0.679688"/><stop stop-opacity="1" stop-color="rgb(8.911133%, 71.948242%, 79.571533%)" offset="0.683594"/><stop stop-opacity="1" stop-color="rgb(8.779907%, 71.899414%, 79.780579%)" offset="0.6875"/><stop stop-opacity="1" stop-color="rgb(8.647156%, 71.84906%, 79.989624%)" offset="0.691406"/><stop stop-opacity="1" stop-color="rgb(8.51593%, 71.800232%, 80.200195%)" offset="0.695313"/><stop stop-opacity="1" stop-color="rgb(8.383179%, 71.749878%, 80.409241%)" offset="0.699219"/><stop stop-opacity="1" stop-color="rgb(8.251953%, 71.70105%, 80.618286%)" offset="0.703125"/><stop stop-opacity="1" stop-color="rgb(8.119202%, 71.650696%, 80.827332%)" offset="0.707031"/><stop stop-opacity="1" stop-color="rgb(7.987976%, 71.601868%, 81.036377%)" offset="0.710938"/><stop stop-opacity="1" stop-color="rgb(7.855225%, 71.551514%, 81.245422%)" offset="0.714844"/><stop stop-opacity="1" stop-color="rgb(7.723999%, 71.502686%, 81.454468%)" offset="0.71875"/><stop stop-opacity="1" stop-color="rgb(7.591248%, 71.452332%, 81.663513%)" offset="0.722656"/><stop stop-opacity="1" stop-color="rgb(7.460022%, 71.403503%, 81.874084%)" offset="0.726562"/><stop stop-opacity="1" stop-color="rgb(7.327271%, 71.353149%, 82.08313%)" offset="0.730469"/><stop stop-opacity="1" stop-color="rgb(7.196045%, 71.304321%, 82.292175%)" offset="0.734375"/><stop stop-opacity="1" stop-color="rgb(7.063293%, 71.253967%, 82.501221%)" offset="0.738281"/><stop stop-opacity="1" stop-color="rgb(6.932068%, 71.205139%, 82.710266%)" offset="0.742188"/><stop stop-opacity="1" stop-color="rgb(6.799316%, 71.154785%, 82.919312%)" offset="0.746094"/><stop stop-opacity="1" stop-color="rgb(6.668091%, 71.105957%, 83.128357%)" offset="0.75"/><stop stop-opacity="1" stop-color="rgb(6.535339%, 71.055603%, 83.337402%)" offset="0.753906"/><stop stop-opacity="1" stop-color="rgb(6.404114%, 71.006775%, 83.547974%)" offset="0.757812"/><stop stop-opacity="1" stop-color="rgb(6.271362%, 70.956421%, 83.757019%)" offset="0.761719"/><stop stop-opacity="1" stop-color="rgb(6.140137%, 70.907593%, 83.966064%)" offset="0.765625"/><stop stop-opacity="1" stop-color="rgb(6.007385%, 70.857239%, 84.17511%)" offset="0.769531"/><stop stop-opacity="1" stop-color="rgb(5.87616%, 70.808411%, 84.384155%)" offset="0.773438"/><stop stop-opacity="1" stop-color="rgb(5.743408%, 70.758057%, 84.593201%)" offset="0.777344"/><stop stop-opacity="1" stop-color="rgb(5.612183%, 70.709229%, 84.802246%)" offset="0.78125"/><stop stop-opacity="1" stop-color="rgb(5.479431%, 70.658875%, 85.011292%)" offset="0.785156"/><stop stop-opacity="1" stop-color="rgb(5.348206%, 70.610046%, 85.221863%)" offset="0.789062"/><stop stop-opacity="1" stop-color="rgb(5.215454%, 70.559692%, 85.430908%)" offset="0.792969"/><stop stop-opacity="1" stop-color="rgb(5.084229%, 70.510864%, 85.639954%)" offset="0.796875"/><stop stop-opacity="1" stop-color="rgb(4.951477%, 70.46051%, 85.848999%)" offset="0.800781"/><stop stop-opacity="1" stop-color="rgb(4.820251%, 70.411682%, 86.058044%)" offset="0.804688"/><stop stop-opacity="1" stop-color="rgb(4.6875%, 70.361328%, 86.26709%)" offset="0.808594"/><stop stop-opacity="1" stop-color="rgb(4.556274%, 70.3125%, 86.476135%)" offset="0.8125"/><stop stop-opacity="1" stop-color="rgb(4.423523%, 70.262146%, 86.685181%)" offset="0.816406"/><stop stop-opacity="1" stop-color="rgb(4.292297%, 70.213318%, 86.894226%)" offset="0.820313"/><stop stop-opacity="1" stop-color="rgb(4.159546%, 70.162964%, 87.103271%)" offset="0.824219"/><stop stop-opacity="1" stop-color="rgb(4.02832%, 70.114136%, 87.313843%)" offset="0.828125"/><stop stop-opacity="1" stop-color="rgb(3.895569%, 70.063782%, 87.522888%)" offset="0.832031"/><stop stop-opacity="1" stop-color="rgb(3.764343%, 70.014954%, 87.731934%)" offset="0.835938"/><stop stop-opacity="1" stop-color="rgb(3.631592%, 69.9646%, 87.940979%)" offset="0.839844"/><stop stop-opacity="1" stop-color="rgb(3.500366%, 69.915771%, 88.150024%)" offset="0.84375"/><stop stop-opacity="1" stop-color="rgb(3.367615%, 69.865417%, 88.35907%)" offset="0.847656"/><stop stop-opacity="1" stop-color="rgb(3.236389%, 69.816589%, 88.568115%)" offset="0.851562"/><stop stop-opacity="1" stop-color="rgb(3.103638%, 69.766235%, 88.777161%)" offset="0.855469"/><stop stop-opacity="1" stop-color="rgb(2.972412%, 69.715881%, 88.987732%)" offset="0.859375"/><stop stop-opacity="1" stop-color="rgb(2.839661%, 69.665527%, 89.196777%)" offset="0.863281"/><stop stop-opacity="1" stop-color="rgb(2.708435%, 69.616699%, 89.405823%)" offset="0.867188"/><stop stop-opacity="1" stop-color="rgb(2.575684%, 69.566345%, 89.614868%)" offset="0.871094"/><stop stop-opacity="1" stop-color="rgb(2.444458%, 69.517517%, 89.823914%)" offset="0.875"/><stop stop-opacity="1" stop-color="rgb(2.311707%, 69.467163%, 90.032959%)" offset="0.878906"/><stop stop-opacity="1" stop-color="rgb(2.180481%, 69.418335%, 90.242004%)" offset="0.882812"/><stop stop-opacity="1" stop-color="rgb(2.047729%, 69.367981%, 90.45105%)" offset="0.886719"/><stop stop-opacity="1" stop-color="rgb(1.916504%, 69.319153%, 90.661621%)" offset="0.890625"/><stop stop-opacity="1" stop-color="rgb(1.783752%, 69.268799%, 90.870667%)" offset="0.894531"/><stop stop-opacity="1" stop-color="rgb(1.652527%, 69.219971%, 91.079712%)" offset="0.898438"/><stop stop-opacity="1" stop-color="rgb(1.519775%, 69.169617%, 91.288757%)" offset="0.902344"/><stop stop-opacity="1" stop-color="rgb(1.38855%, 69.120789%, 91.497803%)" offset="0.90625"/><stop stop-opacity="1" stop-color="rgb(1.255798%, 69.070435%, 91.706848%)" offset="0.910156"/><stop stop-opacity="1" stop-color="rgb(1.124573%, 69.021606%, 91.915894%)" offset="0.914063"/><stop stop-opacity="1" stop-color="rgb(0.991821%, 68.971252%, 92.124939%)" offset="0.917969"/><stop stop-opacity="1" stop-color="rgb(0.860596%, 68.922424%, 92.33551%)" offset="0.921875"/><stop stop-opacity="1" stop-color="rgb(0.727844%, 68.87207%, 92.544556%)" offset="0.925781"/><stop stop-opacity="1" stop-color="rgb(0.596619%, 68.823242%, 92.753601%)" offset="0.929688"/><stop stop-opacity="1" stop-color="rgb(0.463867%, 68.772888%, 92.962646%)" offset="0.933594"/><stop stop-opacity="1" stop-color="rgb(0.332642%, 68.72406%, 93.171692%)" offset="0.9375"/><stop stop-opacity="1" stop-color="rgb(0.19989%, 68.673706%, 93.380737%)" offset="0.941406"/><stop stop-opacity="1" stop-color="rgb(0.0686646%, 68.624878%, 93.589783%)" offset="0.945312"/><stop stop-opacity="1" stop-color="rgb(0.0335693%, 68.611145%, 93.644714%)" offset="0.953125"/><stop stop-opacity="1" stop-color="rgb(0%, 68.598938%, 93.699646%)" offset="0.96875"/><stop stop-opacity="1" stop-color="rgb(0%, 68.598938%, 93.699646%)" offset="0.992733"/><stop stop-opacity="1" stop-color="rgb(0%, 68.598938%, 93.699646%)" offset="1"/></linearGradient></defs><g clip-path="url(#3546170fee)"><g clip-path="url(#a8a34adab0)"><path fill="url(#3b387bc030)" d="M 27.398438 116.871094 L 27.398438 187.191406 L 114.398438 187.191406 L 114.398438 116.871094 Z M 27.398438 116.871094 " fill-rule="nonzero"/></g></g><g fill="#ffffff" fill-opacity="1"><g transform="translate(132.26689, 146.185601)"><g><path d="M 2.25 0 C 2.289062 -0.28125 2.3125 -0.585938 2.3125 -0.921875 L 2.3125 -16.484375 L 4.796875 -16.484375 L 11.375 -6.15625 L 11.375 -15.640625 C 11.375 -16.097656 11.332031 -16.378906 11.25 -16.484375 L 14.59375 -16.484375 C 14.550781 -16.160156 14.53125 -15.796875 14.53125 -15.390625 L 14.53125 0 L 11.953125 0 L 5.484375 -9.9375 L 5.484375 0 Z M 2.25 0 "/></g></g></g><g fill="#ffffff" fill-opacity="1"><g transform="translate(152.671649, 146.185601)"><g><path d="M 10.421875 -2.96875 C 10.929688 -2.96875 11.289062 -3.019531 11.5 -3.125 L 11.546875 -3.109375 L 11.421875 0 L 2.125 0 L 2.125 -16.578125 C 2.351562 -16.554688 2.601562 -16.539062 2.875 -16.53125 L 3.75 -16.515625 C 4.320312 -16.492188 4.945312 -16.484375 5.625 -16.484375 C 7.519531 -16.484375 9.394531 -16.519531 11.25 -16.59375 C 11.15625 -15.863281 11.109375 -14.890625 11.109375 -13.671875 C 11.109375 -13.535156 11.117188 -13.4375 11.140625 -13.375 L 11.109375 -13.34375 C 10.679688 -13.46875 10.070312 -13.53125 9.28125 -13.53125 L 5.375 -13.53125 L 5.375 -10.359375 L 8.3125 -10.359375 C 9.21875 -10.359375 9.757812 -10.382812 9.9375 -10.4375 L 9.984375 -7.375 C 9.585938 -7.414062 9.070312 -7.4375 8.4375 -7.4375 L 5.375 -7.4375 L 5.375 -2.96875 Z M 10.421875 -2.96875 "/></g></g></g><g fill="#ffffff" fill-opacity="1"><g transform="translate(168.947702, 146.185601)"><g><path d="M 11.53125 -16.546875 C 12.039062 -16.503906 12.46875 -16.484375 12.8125 -16.484375 L 13.828125 -16.484375 C 14.179688 -16.484375 14.546875 -16.519531 14.921875 -16.59375 L 14.921875 -6.328125 C 14.921875 -4.296875 14.304688 -2.664062 13.078125 -1.4375 C 11.910156 -0.269531 10.445312 0.3125 8.6875 0.3125 C 6.757812 0.3125 5.203125 -0.1875 4.015625 -1.1875 C 2.679688 -2.3125 2.015625 -3.929688 2.015625 -6.046875 L 2.015625 -16.546875 C 2.703125 -16.503906 3.347656 -16.484375 3.953125 -16.484375 C 4.566406 -16.484375 5.070312 -16.519531 5.46875 -16.59375 L 5.46875 -5.890625 C 5.46875 -4.847656 5.785156 -4.035156 6.421875 -3.453125 C 7.015625 -2.929688 7.757812 -2.671875 8.65625 -2.671875 C 9.976562 -2.671875 10.859375 -3.347656 11.296875 -4.703125 C 11.453125 -5.191406 11.53125 -5.796875 11.53125 -6.515625 Z M 11.53125 -16.546875 "/></g></g></g><g fill="#ffffff" fill-opacity="1"><g transform="translate(189.464043, 146.185601)"><g><path d="M 7.46875 -6.40625 C 7.21875 -6.394531 6.953125 -6.390625 6.671875 -6.390625 C 6.390625 -6.390625 5.972656 -6.410156 5.421875 -6.453125 L 5.421875 0 L 2.125 0 L 2.125 -16.578125 C 3.289062 -16.722656 4.710938 -16.796875 6.390625 -16.796875 C 8.691406 -16.796875 10.40625 -16.367188 11.53125 -15.515625 C 12.664062 -14.671875 13.234375 -13.367188 13.234375 -11.609375 C 13.234375 -10.234375 12.710938 -9.054688 11.671875 -8.078125 C 11.335938 -7.765625 10.953125 -7.492188 10.515625 -7.265625 L 13.046875 -1.9375 C 13.535156 -0.832031 13.914062 -0.175781 14.1875 0.03125 L 14.125 0.09375 C 13.320312 -0.0390625 12.0625 -0.0390625 10.34375 0.09375 Z M 6.625 -13.875 C 6.207031 -13.875 5.804688 -13.851562 5.421875 -13.8125 L 5.421875 -9.078125 C 5.828125 -9.015625 6.300781 -8.984375 6.84375 -8.984375 C 7.382812 -8.984375 7.84375 -9.03125 8.21875 -9.125 C 8.59375 -9.226562 8.914062 -9.378906 9.1875 -9.578125 C 9.769531 -10.015625 10.0625 -10.671875 10.0625 -11.546875 C 10.0625 -12.421875 9.757812 -13.035156 9.15625 -13.390625 C 8.582031 -13.710938 7.738281 -13.875 6.625 -13.875 Z M 6.625 -13.875 "/></g></g></g><g fill="#ffffff" fill-opacity="1"><g transform="translate(207.81065, 146.185601)"><g><path d="M 3.484375 -1.953125 C 2.734375 -2.671875 2.140625 -3.535156 1.703125 -4.546875 C 1.265625 -5.554688 1.046875 -6.660156 1.046875 -7.859375 C 1.046875 -9.066406 1.25 -10.207031 1.65625 -11.28125 C 2.0625 -12.351562 2.640625 -13.296875 3.390625 -14.109375 C 4.148438 -14.929688 5.0625 -15.582031 6.125 -16.0625 C 7.1875 -16.550781 8.378906 -16.796875 9.703125 -16.796875 C 11.984375 -16.796875 13.90625 -16.078125 15.46875 -14.640625 C 17.144531 -13.097656 17.984375 -11.023438 17.984375 -8.421875 C 17.984375 -5.890625 17.117188 -3.785156 15.390625 -2.109375 C 14.335938 -1.078125 13.078125 -0.363281 11.609375 0.03125 C 10.890625 0.21875 10.050781 0.3125 9.09375 0.3125 C 8.132812 0.3125 7.144531 0.113281 6.125 -0.28125 C 5.113281 -0.675781 4.234375 -1.234375 3.484375 -1.953125 Z M 4.5 -8.03125 C 4.5 -7.257812 4.625 -6.550781 4.875 -5.90625 C 5.132812 -5.269531 5.492188 -4.71875 5.953125 -4.25 C 6.921875 -3.28125 8.164062 -2.796875 9.6875 -2.796875 C 11.132812 -2.796875 12.296875 -3.257812 13.171875 -4.1875 C 14.054688 -5.15625 14.5 -6.472656 14.5 -8.140625 C 14.5 -9.710938 14.078125 -11.023438 13.234375 -12.078125 C 12.316406 -13.203125 11.054688 -13.765625 9.453125 -13.765625 C 7.910156 -13.765625 6.6875 -13.191406 5.78125 -12.046875 C 4.925781 -10.984375 4.5 -9.644531 4.5 -8.03125 Z M 4.5 -8.03125 "/></g></g></g><g fill="#ffffff" fill-opacity="1"><g transform="translate(230.397545, 146.185601)"><g><path d="M 12.09375 -15.578125 L 11.859375 -11.921875 L 11.765625 -11.90625 C 11.148438 -12.820312 10.109375 -13.414062 8.640625 -13.6875 C 8.179688 -13.78125 7.738281 -13.828125 7.3125 -13.828125 C 6.882812 -13.828125 6.519531 -13.785156 6.21875 -13.703125 C 5.914062 -13.628906 5.65625 -13.523438 5.4375 -13.390625 C 4.988281 -13.085938 4.765625 -12.695312 4.765625 -12.21875 C 4.765625 -11.59375 4.960938 -11.125 5.359375 -10.8125 C 5.847656 -10.425781 6.664062 -10.15625 7.8125 -10 C 8.96875 -9.851562 9.890625 -9.644531 10.578125 -9.375 C 11.273438 -9.113281 11.847656 -8.78125 12.296875 -8.375 C 13.140625 -7.613281 13.5625 -6.539062 13.5625 -5.15625 C 13.5625 -3.34375 12.875 -1.941406 11.5 -0.953125 C 10.332031 -0.109375 8.851562 0.3125 7.0625 0.3125 C 5.625 0.3125 4.203125 0.0351562 2.796875 -0.515625 C 2.335938 -0.691406 1.9375 -0.898438 1.59375 -1.140625 L 1.71875 -5.28125 L 1.765625 -5.3125 C 2.796875 -3.550781 4.476562 -2.671875 6.8125 -2.671875 C 8.476562 -2.671875 9.578125 -3.070312 10.109375 -3.875 C 10.296875 -4.144531 10.390625 -4.445312 10.390625 -4.78125 C 10.390625 -5.113281 10.332031 -5.390625 10.21875 -5.609375 C 10.113281 -5.828125 9.9375 -6.015625 9.6875 -6.171875 C 9.207031 -6.484375 8.398438 -6.691406 7.265625 -6.796875 C 6.140625 -6.910156 5.21875 -7.113281 4.5 -7.40625 C 3.78125 -7.707031 3.207031 -8.078125 2.78125 -8.515625 C 2 -9.304688 1.609375 -10.414062 1.609375 -11.84375 C 1.609375 -13.3125 2.125 -14.5 3.15625 -15.40625 C 4.207031 -16.332031 5.625 -16.796875 7.40625 -16.796875 C 9.1875 -16.796875 10.75 -16.390625 12.09375 -15.578125 Z M 12.09375 -15.578125 "/></g></g></g><g fill="#ffffff" fill-opacity="1"><g transform="translate(248.744153, 146.185601)"><g><path d="M 1.890625 -16.578125 C 3.046875 -16.722656 4.226562 -16.796875 5.4375 -16.796875 C 7.675781 -16.796875 9.378906 -16.269531 10.546875 -15.21875 C 11.722656 -14.164062 12.3125 -12.585938 12.3125 -10.484375 C 12.3125 -8.609375 11.671875 -7.125 10.390625 -6.03125 C 9.191406 -5.007812 7.648438 -4.5 5.765625 -4.5 C 5.546875 -4.5 5.3125 -4.507812 5.0625 -4.53125 L 5.0625 0 L 1.890625 0 Z M 5.796875 -13.8125 C 5.554688 -13.8125 5.3125 -13.800781 5.0625 -13.78125 L 5.0625 -7.265625 C 5.320312 -7.234375 5.640625 -7.21875 6.015625 -7.21875 C 6.398438 -7.21875 6.796875 -7.296875 7.203125 -7.453125 C 7.617188 -7.617188 7.96875 -7.847656 8.25 -8.140625 C 8.84375 -8.734375 9.140625 -9.523438 9.140625 -10.515625 C 9.140625 -12.710938 8.023438 -13.8125 5.796875 -13.8125 Z M 5.796875 -13.8125 "/></g></g></g><g fill="#ffffff" fill-opacity="1"><g transform="translate(265.020206, 146.185601)"><g><path d="M 5.484375 0.078125 C 4.691406 0.0234375 3.75 0 2.65625 0 L 2.25 0 L 2.25 -16.546875 C 2.769531 -16.503906 3.132812 -16.484375 3.34375 -16.484375 L 3.859375 -16.484375 C 4.503906 -16.484375 5.046875 -16.519531 5.484375 -16.59375 L 5.484375 -9.984375 L 11.3125 -9.984375 L 11.3125 -16.546875 C 11.988281 -16.503906 12.648438 -16.484375 13.296875 -16.484375 C 13.953125 -16.484375 14.363281 -16.519531 14.53125 -16.59375 L 14.53125 0.078125 C 14.132812 0.0234375 13.347656 0 12.171875 0 L 11.3125 0 L 11.3125 -7 L 5.484375 -7 Z M 5.484375 0.078125 "/></g></g></g><g fill="#ffffff" fill-opacity="1"><g transform="translate(285.486953, 146.185601)"><g><path d="M 10.421875 -2.96875 C 10.929688 -2.96875 11.289062 -3.019531 11.5 -3.125 L 11.546875 -3.109375 L 11.421875 0 L 2.125 0 L 2.125 -16.578125 C 2.351562 -16.554688 2.601562 -16.539062 2.875 -16.53125 L 3.75 -16.515625 C 4.320312 -16.492188 4.945312 -16.484375 5.625 -16.484375 C 7.519531 -16.484375 9.394531 -16.519531 11.25 -16.59375 C 11.15625 -15.863281 11.109375 -14.890625 11.109375 -13.671875 C 11.109375 -13.535156 11.117188 -13.4375 11.140625 -13.375 L 11.109375 -13.34375 C 10.679688 -13.46875 10.070312 -13.53125 9.28125 -13.53125 L 5.375 -13.53125 L 5.375 -10.359375 L 8.3125 -10.359375 C 9.21875 -10.359375 9.757812 -10.382812 9.9375 -10.4375 L 9.984375 -7.375 C 9.585938 -7.414062 9.070312 -7.4375 8.4375 -7.4375 L 5.375 -7.4375 L 5.375 -2.96875 Z M 10.421875 -2.96875 "/></g></g></g><g fill="#ffffff" fill-opacity="1"><g transform="translate(301.763006, 146.185601)"><g><path d="M 7.46875 -6.40625 C 7.21875 -6.394531 6.953125 -6.390625 6.671875 -6.390625 C 6.390625 -6.390625 5.972656 -6.410156 5.421875 -6.453125 L 5.421875 0 L 2.125 0 L 2.125 -16.578125 C 3.289062 -16.722656 4.710938 -16.796875 6.390625 -16.796875 C 8.691406 -16.796875 10.40625 -16.367188 11.53125 -15.515625 C 12.664062 -14.671875 13.234375 -13.367188 13.234375 -11.609375 C 13.234375 -10.234375 12.710938 -9.054688 11.671875 -8.078125 C 11.335938 -7.765625 10.953125 -7.492188 10.515625 -7.265625 L 13.046875 -1.9375 C 13.535156 -0.832031 13.914062 -0.175781 14.1875 0.03125 L 14.125 0.09375 C 13.320312 -0.0390625 12.0625 -0.0390625 10.34375 0.09375 Z M 6.625 -13.875 C 6.207031 -13.875 5.804688 -13.851562 5.421875 -13.8125 L 5.421875 -9.078125 C 5.828125 -9.015625 6.300781 -8.984375 6.84375 -8.984375 C 7.382812 -8.984375 7.84375 -9.03125 8.21875 -9.125 C 8.59375 -9.226562 8.914062 -9.378906 9.1875 -9.578125 C 9.769531 -10.015625 10.0625 -10.671875 10.0625 -11.546875 C 10.0625 -12.421875 9.757812 -13.035156 9.15625 -13.390625 C 8.582031 -13.710938 7.738281 -13.875 6.625 -13.875 Z M 6.625 -13.875 "/></g></g></g><g fill="#ffffff" fill-opacity="1"><g transform="translate(320.109604, 146.185601)"><g><path d="M 10.421875 -2.96875 C 10.929688 -2.96875 11.289062 -3.019531 11.5 -3.125 L 11.546875 -3.109375 L 11.421875 0 L 2.125 0 L 2.125 -16.578125 C 2.351562 -16.554688 2.601562 -16.539062 2.875 -16.53125 L 3.75 -16.515625 C 4.320312 -16.492188 4.945312 -16.484375 5.625 -16.484375 C 7.519531 -16.484375 9.394531 -16.519531 11.25 -16.59375 C 11.15625 -15.863281 11.109375 -14.890625 11.109375 -13.671875 C 11.109375 -13.535156 11.117188 -13.4375 11.140625 -13.375 L 11.109375 -13.34375 C 10.679688 -13.46875 10.070312 -13.53125 9.28125 -13.53125 L 5.375 -13.53125 L 5.375 -10.359375 L 8.3125 -10.359375 C 9.21875 -10.359375 9.757812 -10.382812 9.9375 -10.4375 L 9.984375 -7.375 C 9.585938 -7.414062 9.070312 -7.4375 8.4375 -7.4375 L 5.375 -7.4375 L 5.375 -2.96875 Z M 10.421875 -2.96875 "/></g></g></g><g fill="#ffffff" fill-opacity="1"><g transform="translate(132.26689, 175.897767)"><g><path d="M 8.15625 0.730469 L 10.25 -9.015625 L 9.308594 -9.015625 L 7.902344 -2.464844 L 5.199219 -9.546875 L 2.480469 -2.464844 L 1.085938 -9.015625 L 0.132812 -9.015625 L 2.242188 0.730469 L 5.199219 -7.121094 Z M 8.15625 0.730469 "/></g></g></g><g fill="#ffffff" fill-opacity="1"><g transform="translate(144.302832, 175.897767)"><g><path d="M 6.695312 -3.050781 C 6.695312 -3.84375 6.378906 -4.535156 5.769531 -5.132812 C 5.171875 -5.703125 4.457031 -5.992188 3.648438 -5.992188 C 2.796875 -5.992188 2.082031 -5.6875 1.484375 -5.09375 C 0.886719 -4.496094 0.597656 -3.777344 0.597656 -2.945312 C 0.597656 -2.09375 0.886719 -1.378906 1.484375 -0.796875 C 1.761719 -0.515625 2.082031 -0.304688 2.453125 -0.144531 C 2.824219 0.0117188 3.261719 0.09375 3.777344 0.09375 C 4.296875 0.09375 4.800781 -0.0664062 5.304688 -0.382812 C 5.808594 -0.703125 6.179688 -1.152344 6.429688 -1.710938 L 5.371094 -1.710938 C 5.15625 -1.433594 4.90625 -1.21875 4.601562 -1.0625 C 4.296875 -0.902344 3.976562 -0.835938 3.648438 -0.835938 C 3.144531 -0.835938 2.691406 -0.996094 2.292969 -1.324219 C 1.894531 -1.644531 1.644531 -2.054688 1.566406 -2.558594 L 6.695312 -2.558594 Z M 5.714844 -3.355469 L 1.578125 -3.355469 C 1.632812 -3.59375 1.722656 -3.820312 1.855469 -4.03125 C 2.28125 -4.71875 2.878906 -5.066406 3.648438 -5.066406 C 4.136719 -5.066406 4.574219 -4.90625 4.960938 -4.589844 C 5.355469 -4.257812 5.597656 -3.84375 5.714844 -3.355469 Z M 5.714844 -3.355469 "/></g></g></g><g fill="#ffffff" fill-opacity="1"><g transform="translate(153.18436, 175.897767)"><g><path d="M 1.921875 0 L 1.921875 -0.996094 C 1.960938 -0.914062 2.027344 -0.847656 2.082031 -0.796875 C 2.640625 -0.171875 3.316406 0.132812 4.125 0.132812 C 4.917969 0.132812 5.597656 -0.171875 6.152344 -0.796875 C 6.683594 -1.390625 6.960938 -2.09375 6.960938 -2.917969 C 6.960938 -3.726562 6.683594 -4.429688 6.152344 -5.039062 C 5.597656 -5.648438 4.917969 -5.96875 4.125 -5.96875 C 3.316406 -5.96875 2.640625 -5.648438 2.082031 -5.039062 C 2.027344 -4.972656 1.960938 -4.90625 1.921875 -4.828125 L 1.921875 -9.945312 L 0.996094 -9.945312 L 0.996094 0 Z M 6.035156 -2.917969 C 6.035156 -2.347656 5.835938 -1.84375 5.4375 -1.433594 C 5.039062 -1.007812 4.546875 -0.796875 3.976562 -0.796875 C 3.394531 -0.796875 2.902344 -1.007812 2.507812 -1.433594 C 2.109375 -1.84375 1.921875 -2.347656 1.921875 -2.917969 C 1.921875 -3.472656 2.109375 -3.976562 2.507812 -4.402344 C 2.902344 -4.828125 3.394531 -5.039062 3.976562 -5.039062 C 4.546875 -5.039062 5.039062 -4.828125 5.4375 -4.402344 C 5.835938 -3.976562 6.035156 -3.472656 6.035156 -2.917969 Z M 6.035156 -2.917969 "/></g></g></g><g fill="#ffffff" fill-opacity="1"><g transform="translate(162.397228, 175.897767)"><g><path d="M 2.703125 -1.566406 L 1.433594 -1.566406 L 0.664062 1.871094 L 1.21875 1.871094 Z M 2.703125 -1.566406 "/></g></g></g><g fill="#ffffff" fill-opacity="1"><g transform="translate(167.130295, 175.897767)"><g/></g></g><g fill="#ffffff" fill-opacity="1"><g transform="translate(172.367005, 175.897767)"><g><path d="M 9.308594 0 L 10.25 0 L 8.15625 -9.613281 L 5.199219 -1.894531 L 2.242188 -9.613281 L 0.132812 0 L 1.085938 0 L 2.480469 -6.417969 L 5.199219 0.53125 L 7.902344 -6.417969 Z M 9.308594 0 "/></g></g></g><g fill="#ffffff" fill-opacity="1"><g transform="translate(184.402947, 175.897767)"><g><path d="M 5.769531 -2.945312 C 5.769531 -2.359375 5.554688 -1.871094 5.144531 -1.457031 C 4.71875 -1.035156 4.230469 -0.835938 3.648438 -0.835938 C 3.0625 -0.835938 2.558594 -1.035156 2.148438 -1.457031 C 1.722656 -1.871094 1.523438 -2.359375 1.523438 -2.945312 C 1.523438 -3.527344 1.722656 -4.019531 2.148438 -4.441406 C 2.558594 -4.851562 3.0625 -5.066406 3.648438 -5.066406 C 4.230469 -5.066406 4.71875 -4.851562 5.144531 -4.441406 C 5.554688 -4.019531 5.769531 -3.527344 5.769531 -2.945312 Z M 6.695312 -2.945312 C 6.695312 -3.777344 6.390625 -4.496094 5.792969 -5.09375 C 5.199219 -5.6875 4.480469 -5.992188 3.648438 -5.992188 C 2.796875 -5.992188 2.082031 -5.6875 1.484375 -5.09375 C 0.886719 -4.496094 0.597656 -3.777344 0.597656 -2.945312 C 0.597656 -2.09375 0.886719 -1.378906 1.484375 -0.796875 C 2.082031 -0.199219 2.8125 0.09375 3.648438 0.09375 C 4.46875 0.09375 5.199219 -0.199219 5.792969 -0.796875 C 6.390625 -1.378906 6.695312 -2.09375 6.695312 -2.945312 Z M 6.695312 -2.945312 "/></g></g></g><g fill="#ffffff" fill-opacity="1"><g transform="translate(193.350733, 175.897767)"><g><path d="M 1.921875 0 L 1.921875 -0.996094 C 1.960938 -0.914062 2.027344 -0.847656 2.082031 -0.796875 C 2.640625 -0.171875 3.316406 0.132812 4.125 0.132812 C 4.917969 0.132812 5.597656 -0.171875 6.152344 -0.796875 C 6.683594 -1.390625 6.960938 -2.09375 6.960938 -2.917969 C 6.960938 -3.726562 6.683594 -4.429688 6.152344 -5.039062 C 5.597656 -5.648438 4.917969 -5.96875 4.125 -5.96875 C 3.316406 -5.96875 2.640625 -5.648438 2.082031 -5.039062 C 2.027344 -4.972656 1.960938 -4.90625 1.921875 -4.828125 L 1.921875 -9.945312 L 0.996094 -9.945312 L 0.996094 0 Z M 6.035156 -2.917969 C 6.035156 -2.347656 5.835938 -1.84375 5.4375 -1.433594 C 5.039062 -1.007812 4.546875 -0.796875 3.976562 -0.796875 C 3.394531 -0.796875 2.902344 -1.007812 2.507812 -1.433594 C 2.109375 -1.84375 1.921875 -2.347656 1.921875 -2.917969 C 1.921875 -3.472656 2.109375 -3.976562 2.507812 -4.402344 C 2.902344 -4.828125 3.394531 -5.039062 3.976562 -5.039062 C 4.546875 -5.039062 5.039062 -4.828125 5.4375 -4.402344 C 5.835938 -3.976562 6.035156 -3.472656 6.035156 -2.917969 Z M 6.035156 -2.917969 "/></g></g></g><g fill="#ffffff" fill-opacity="1"><g transform="translate(202.563604, 175.897767)"><g><path d="M 1.9375 -7.851562 C 1.816406 -7.957031 1.671875 -8.023438 1.511719 -8.023438 C 1.351562 -8.023438 1.207031 -7.957031 1.101562 -7.851562 C 0.980469 -7.730469 0.929688 -7.585938 0.929688 -7.425781 C 0.929688 -7.265625 0.980469 -7.121094 1.101562 -7.015625 C 1.207031 -6.894531 1.351562 -6.84375 1.511719 -6.84375 C 1.671875 -6.84375 1.816406 -6.894531 1.9375 -7.015625 C 2.042969 -7.121094 2.109375 -7.265625 2.109375 -7.425781 C 2.109375 -7.585938 2.042969 -7.730469 1.9375 -7.851562 Z M 1.988281 0 L 1.988281 -5.835938 L 1.0625 -5.835938 L 1.0625 0 Z M 1.988281 0 "/></g></g></g><g fill="#ffffff" fill-opacity="1"><g transform="translate(207.2569, 175.897767)"><g><path d="M 1.921875 0 L 1.921875 -9.945312 L 0.996094 -9.945312 L 0.996094 0 Z M 1.921875 0 "/></g></g></g><g fill="#ffffff" fill-opacity="1"><g transform="translate(211.830915, 175.897767)"><g><path d="M 6.695312 -3.050781 C 6.695312 -3.84375 6.378906 -4.535156 5.769531 -5.132812 C 5.171875 -5.703125 4.457031 -5.992188 3.648438 -5.992188 C 2.796875 -5.992188 2.082031 -5.6875 1.484375 -5.09375 C 0.886719 -4.496094 0.597656 -3.777344 0.597656 -2.945312 C 0.597656 -2.09375 0.886719 -1.378906 1.484375 -0.796875 C 1.761719 -0.515625 2.082031 -0.304688 2.453125 -0.144531 C 2.824219 0.0117188 3.261719 0.09375 3.777344 0.09375 C 4.296875 0.09375 4.800781 -0.0664062 5.304688 -0.382812 C 5.808594 -0.703125 6.179688 -1.152344 6.429688 -1.710938 L 5.371094 -1.710938 C 5.15625 -1.433594 4.90625 -1.21875 4.601562 -1.0625 C 4.296875 -0.902344 3.976562 -0.835938 3.648438 -0.835938 C 3.144531 -0.835938 2.691406 -0.996094 2.292969 -1.324219 C 1.894531 -1.644531 1.644531 -2.054688 1.566406 -2.558594 L 6.695312 -2.558594 Z M 5.714844 -3.355469 L 1.578125 -3.355469 C 1.632812 -3.59375 1.722656 -3.820312 1.855469 -4.03125 C 2.28125 -4.71875 2.878906 -5.066406 3.648438 -5.066406 C 4.136719 -5.066406 4.574219 -4.90625 4.960938 -4.589844 C 5.355469 -4.257812 5.597656 -3.84375 5.714844 -3.355469 Z M 5.714844 -3.355469 "/></g></g></g><g fill="#ffffff" fill-opacity="1"><g transform="translate(220.712445, 175.897767)"><g><path d="M 2.703125 -1.566406 L 1.433594 -1.566406 L 0.664062 1.871094 L 1.21875 1.871094 Z M 2.703125 -1.566406 "/></g></g></g><g fill="#ffffff" fill-opacity="1"><g transform="translate(225.445509, 175.897767)"><g/></g></g><g fill="#ffffff" fill-opacity="1"><g transform="translate(230.682216, 175.897767)"><g><path d="M 2.453125 -3.316406 L 4.097656 -7.464844 L 5.726562 -3.316406 Z M 8.046875 0 L 4.097656 -9.640625 L 0.132812 0 L 1.140625 0 L 2.109375 -2.453125 L 6.074219 -2.453125 L 7.042969 0 Z M 8.046875 0 "/></g></g></g><g fill="#ffffff" fill-opacity="1"><g transform="translate(240.518024, 175.897767)"><g><path d="M 1.921875 0 L 1.921875 -9.015625 L 0.996094 -9.015625 L 0.996094 0 Z M 1.921875 0 "/></g></g></g></svg>